<svg width="8" height="5" viewBox="0 0 8 5" fill="none" xmlns="http://www.w3.org/2000/svg">
<path d="M3.92544 4.85712C3.83281 4.85712 3.74596 4.84253 3.66491 4.81335C3.58385 4.78463 3.50859 4.73554 3.43911 4.66606L0.22589 1.45284C0.0985185 1.32547 0.0378435 1.16614 0.0438647 0.97485C0.0494227 0.784025 0.115887 0.624927 0.243258 0.497556C0.370629 0.370185 0.532738 0.306499 0.729584 0.306499C0.92643 0.306499 1.08854 0.370185 1.21591 0.497556L3.92544 3.20709L6.65234 0.480187C6.77971 0.352816 6.93904 0.29191 7.13033 0.297468C7.32115 0.303489 7.48025 0.370185 7.60762 0.497556C7.73499 0.624927 7.79868 0.787036 7.79868 0.983882C7.79868 1.18073 7.73499 1.34284 7.60762 1.47021L4.41177 4.66606C4.34229 4.73554 4.26703 4.78463 4.18597 4.81335C4.10492 4.84253 4.01807 4.85712 3.92544 4.85712Z" fill="#121212"/>
</svg>
